# xmcd
#
# Track frame offsets:
#	150
#	13942
#	28395
#	38767
#	54697
#	67032
#	77260
#	94620
#	106417
#	118097
#	128447
#	137832
#	153957
#	174255
#	185097
#	195320
#	206140
#
# Disc length: 2884 seconds
#
# Revision: 2
# Processed by: cddbd v1.5.2PL0 Copyright (c) Steve Scherf et al.
# Submitted via: audiograbber 1.83.01
#
DISCID=e60b4211
DTITLE=Various Artist - Compact Country - Disc 2
DYEAR=1900
DGENRE=Country
TTITLE0=Dave Dudley - Phantom 309
TTITLE1=Dolly Parton and Willie Nelson - Everything Is Beautiful
TTITLE2=Gene Autry - San Antonio Rose
TTITLE3=Kris Kristofferson - Why Me Lord
TTITLE4=B J Thomas - Hooked On A Feeling
TTITLE5=Roy Orbison - Running Scared
TTITLE6=Michael Jones - You Gave Me A Mountain
TTITLE7=Don Gibson - Oh Lonesome Me
TTITLE8=Floyd Cramer - Fancy Pants
TTITLE9=Faron Young - Hello Walls
TTITLE10=George Jones - I Have 5 Dollars And It's Saturday Night
TTITLE11=Gary Puckett - Crying
TTITLE12=Lynn Anderson - Snowbird
TTITLE13=Col Joye - China Doll - Rose Marie
TTITLE14=Jimmie Rodgers - Kisses Sweeter Than Wine
TTITLE15=Don Williams - Always Something There To Remind Me
TTITLE16=Boots Randolf - Walk Right In
EXTD=
EXTT0=
EXTT1=
EXTT2=
EXTT3=
EXTT4=
EXTT5=
EXTT6=
EXTT7=
EXTT8=
EXTT9=
EXTT10=
EXTT11=
EXTT12=
EXTT13=
EXTT14=
EXTT15=
EXTT16=
PLAYORDER=
